<svg xmlns="http://www.w3.org/2000/svg" viewBox="0 0 900 500">
  <rect width="900" height="500" fill="#f8f9fa"/>
  <text x="450" y="30" text-anchor="middle" font-family="sans-serif" font-size="18" font-weight="bold" fill="#333">Componentes - Motor Stablecoin</text>
  <rect x="50" y="60" width="800" height="180" rx="12" fill="#c8e6c9" stroke="#2e7d32" stroke-width="2"/>
  <text x="450" y="85" text-anchor="middle" font-family="sans-serif" font-size="14" font-weight="bold" fill="#2e7d32">Motor Stablecoin (Rust/Go)</text>
  <rect x="70" y="105" width="160" height="50" rx="6" fill="#e8f5e9" stroke="#388e3c" stroke-width="1.5"/>
  <text x="150" y="125" text-anchor="middle" font-family="sans-serif" font-size="11" font-weight="bold" fill="#1b5e20">PaymentOrchestrator</text>
  <text x="150" y="142" text-anchor="middle" font-family="sans-serif" font-size="9" fill="#1b5e20">Orquesta ciclo de pago</text>
  <rect x="260" y="105" width="130" height="50" rx="6" fill="#e8f5e9" stroke="#388e3c" stroke-width="1.5"/>
  <text x="325" y="125" text-anchor="middle" font-family="sans-serif" font-size="11" font-weight="bold" fill="#1b5e20">FX Provider</text>
  <text x="325" y="142" text-anchor="middle" font-family="sans-serif" font-size="9" fill="#1b5e20">Tasas en tiempo real</text>
  <rect x="420" y="105" width="140" height="50" rx="6" fill="#e8f5e9" stroke="#388e3c" stroke-width="1.5"/>
  <text x="490" y="125" text-anchor="middle" font-family="sans-serif" font-size="11" font-weight="bold" fill="#1b5e20">Pool de Liquidez</text>
  <text x="490" y="142" text-anchor="middle" font-family="sans-serif" font-size="9" fill="#1b5e20">Pools on-chain</text>
  <rect x="590" y="105" width="130" height="50" rx="6" fill="#e8f5e9" stroke="#388e3c" stroke-width="1.5"/>
  <text x="655" y="125" text-anchor="middle" font-family="sans-serif" font-size="11" font-weight="bold" fill="#1b5e20">On-Ramp Adapter</text>
  <text x="655" y="142" text-anchor="middle" font-family="sans-serif" font-size="9" fill="#1b5e20">Fiat -> Stablecoin</text>
  <rect x="740" y="105" width="100" height="50" rx="6" fill="#e8f5e9" stroke="#388e3c" stroke-width="1.5"/>
  <text x="790" y="125" text-anchor="middle" font-family="sans-serif" font-size="11" font-weight="bold" fill="#1b5e20">Off-Ramp</text>
  <text x="790" y="142" text-anchor="middle" font-family="sans-serif" font-size="9" fill="#1b5e20">Stable->Fiat</text>
  <rect x="350" y="175" width="200" height="50" rx="6" fill="#e8f5e9" stroke="#388e3c" stroke-width="1.5"/>
  <text x="450" y="195" text-anchor="middle" font-family="sans-serif" font-size="11" font-weight="bold" fill="#1b5e20">StatusTracker</text>
  <text x="450" y="212" text-anchor="middle" font-family="sans-serif" font-size="9" fill="#1b5e20">Monitoreo de TX on-chain</text>
  <line x1="230" y1="130" x2="258" y2="130" stroke="#666" stroke-width="1" marker-end="url(#arrow)"/>
  <line x1="390" y1="130" x2="418" y2="130" stroke="#666" stroke-width="1" marker-end="url(#arrow)"/>
  <line x1="560" y1="130" x2="588" y2="130" stroke="#666" stroke-width="1" marker-end="url(#arrow)"/>
  <line x1="720" y1="130" x2="738" y2="130" stroke="#666" stroke-width="1" marker-end="url(#arrow)"/>
  <line x1="490" y1="155" x2="450" y2="173" stroke="#666" stroke-width="1" marker-end="url(#arrow)"/>
  <text x="450" y="280" text-anchor="middle" font-family="sans-serif" font-size="14" font-weight="bold" fill="#333">Componentes - Servicio de Compliance</text>
  <rect x="50" y="300" width="800" height="170" rx="12" fill="#fff9c4" stroke="#f57f17" stroke-width="2"/>
  <text x="450" y="325" text-anchor="middle" font-family="sans-serif" font-size="14" font-weight="bold" fill="#f57f17">Servicio de Compliance (Python)</text>
  <rect x="70" y="345" width="140" height="50" rx="6" fill="#fffde7" stroke="#fbc02d" stroke-width="1.5"/>
  <text x="140" y="365" text-anchor="middle" font-family="sans-serif" font-size="11" font-weight="bold" fill="#f57f17">IdentityVerifier</text>
  <text x="140" y="382" text-anchor="middle" font-family="sans-serif" font-size="9" fill="#f57f17">KYC onboarding</text>
  <rect x="240" y="345" width="130" height="50" rx="6" fill="#fffde7" stroke="#fbc02d" stroke-width="1.5"/>
  <text x="305" y="365" text-anchor="middle" font-family="sans-serif" font-size="11" font-weight="bold" fill="#f57f17">AML Screener</text>
  <text x="305" y="382" text-anchor="middle" font-family="sans-serif" font-size="9" fill="#f57f17">Analisis de riesgo</text>
  <rect x="400" y="345" width="140" height="50" rx="6" fill="#fffde7" stroke="#fbc02d" stroke-width="1.5"/>
  <text x="470" y="365" text-anchor="middle" font-family="sans-serif" font-size="11" font-weight="bold" fill="#f57f17">TravelRuleEngine</text>
  <text x="470" y="382" text-anchor="middle" font-family="sans-serif" font-size="9" fill="#f57f17">Intercambio VASP</text>
  <rect x="570" y="345" width="130" height="50" rx="6" fill="#fffde7" stroke="#fbc02d" stroke-width="1.5"/>
  <text x="635" y="365" text-anchor="middle" font-family="sans-serif" font-size="11" font-weight="bold" fill="#f57f17">SanctionsChecker</text>
  <text x="635" y="382" text-anchor="middle" font-family="sans-serif" font-size="9" fill="#f57f17">Filtro OFAC/UE</text>
  <rect x="730" y="345" width="110" height="50" rx="6" fill="#fffde7" stroke="#fbc02d" stroke-width="1.5"/>
  <text x="785" y="365" text-anchor="middle" font-family="sans-serif" font-size="11" font-weight="bold" fill="#f57f17">AuditLogger</text>
  <text x="785" y="382" text-anchor="middle" font-family="sans-serif" font-size="9" fill="#f57f17">Registro auditoria</text>
  <line x1="210" y1="370" x2="238" y2="370" stroke="#666" stroke-width="1" marker-end="url(#arrow)"/>
  <line x1="370" y1="370" x2="398" y2="370" stroke="#666" stroke-width="1" marker-end="url(#arrow)"/>
  <line x1="540" y1="370" x2="568" y2="370" stroke="#666" stroke-width="1" marker-end="url(#arrow)"/>
  <line x1="700" y1="370" x2="728" y2="370" stroke="#666" stroke-width="1" marker-end="url(#arrow)"/>
  <defs>
    <marker id="arrow" viewBox="0 0 10 10" refX="10" refY="5" markerWidth="6" markerHeight="6" orient="auto">
      <path d="M0,0 L10,5 L0,10 Z" fill="#666"/>
    </marker>
  </defs>
</svg>
