<svg xmlns="http://www.w3.org/2000/svg" viewBox="0 0 800 600">
  <rect width="800" height="600" fill="#f8f9fa"/>
  <text x="400" y="40" text-anchor="middle" font-family="sans-serif" font-size="20" font-weight="bold" fill="#333">Contexto - Stablecoin Banking</text>
  <rect x="50" y="100" width="160" height="60" rx="8" fill="#e3f2fd" stroke="#1565c0" stroke-width="2"/>
  <text x="130" y="135" text-anchor="middle" font-family="sans-serif" font-size="14" fill="#1565c0">Cliente</text>
  <rect x="590" y="100" width="160" height="60" rx="8" fill="#fff3e0" stroke="#e65100" stroke-width="2"/>
  <text x="670" y="135" text-anchor="middle" font-family="sans-serif" font-size="14" fill="#e65100">Comercio</text>
  <rect x="590" y="200" width="160" height="60" rx="8" fill="#fce4ec" stroke="#c62828" stroke-width="2"/>
  <text x="670" y="235" text-anchor="middle" font-family="sans-serif" font-size="14" fill="#c62828">Regulador</text>
  <rect x="200" y="260" width="400" height="80" rx="12" fill="#e8f5e9" stroke="#2e7d32" stroke-width="2"/>
  <text x="400" y="295" text-anchor="middle" font-family="sans-serif" font-size="16" font-weight="bold" fill="#2e7d32">Plataforma Stablecoin Banking</text>
  <text x="400" y="320" text-anchor="middle" font-family="sans-serif" font-size="12" fill="#2e7d32">Sistema de pagos con liquidacion en stablecoins</text>
  <rect x="50" y="420" width="180" height="60" rx="8" fill="#f3e5f5" stroke="#6a1b9a" stroke-width="2"/>
  <text x="140" y="455" text-anchor="middle" font-family="sans-serif" font-size="14" fill="#6a1b9a">Banco Socio</text>
  <rect x="310" y="420" width="180" height="60" rx="8" fill="#e1f5fe" stroke="#0277bd" stroke-width="2"/>
  <text x="400" y="455" text-anchor="middle" font-family="sans-serif" font-size="14" fill="#0277bd">Red Blockchain</text>
  <rect x="570" y="420" width="180" height="60" rx="8" fill="#eceff1" stroke="#546e7a" stroke-width="2"/>
  <text x="660" y="455" text-anchor="middle" font-family="sans-serif" font-size="14" fill="#546e7a">Core Bancario</text>
  <line x1="210" y1="160" x2="400" y2="260" stroke="#333" stroke-width="1.5" marker-end="url(#arrow)"/>
  <line x1="590" y1="130" x2="601" y2="260" stroke="#333" stroke-width="1.5" marker-end="url(#arrow)"/>
  <line x1="590" y1="230" x2="601" y2="260" stroke="#333" stroke-width="1.5" marker-end="url(#arrow)"/>
  <line x1="290" y1="340" x2="180" y2="420" stroke="#333" stroke-width="1.5" marker-end="url(#arrow)"/>
  <line x1="420" y1="340" x2="420" y2="420" stroke="#333" stroke-width="1.5" marker-end="url(#arrow)"/>
  <line x1="570" y1="340" x2="660" y2="420" stroke="#333" stroke-width="1.5" marker-end="url(#arrow)"/>
  <defs>
    <marker id="arrow" viewBox="0 0 10 10" refX="10" refY="5" markerWidth="8" markerHeight="8" orient="auto">
      <path d="M0,0 L10,5 L0,10 Z" fill="#333"/>
    </marker>
  </defs>
</svg>
