<svg xmlns="http://www.w3.org/2000/svg" viewBox="0 0 900 700">
  <rect width="900" height="700" fill="#f8f9fa"/>
  <text x="450" y="35" text-anchor="middle" font-family="sans-serif" font-size="18" font-weight="bold" fill="#333">Contenedores - Stablecoin Banking</text>
  <rect x="330" y="60" width="240" height="40" rx="8" fill="#e8f5e9" stroke="#2e7d32" stroke-width="2"/>
  <text x="450" y="85" text-anchor="middle" font-family="sans-serif" font-size="14" font-weight="bold" fill="#2e7d32">Plataforma Stablecoin Banking</text>
  <rect x="100" y="130" width="150" height="40" rx="6" fill="#bbdefb" stroke="#1565c0" stroke-width="1.5"/>
  <text x="175" y="155" text-anchor="middle" font-family="sans-serif" font-size="12" fill="#1565c0">App Web (Angular)</text>
  <rect x="270" y="130" width="150" height="40" rx="6" fill="#bbdefb" stroke="#1565c0" stroke-width="1.5"/>
  <text x="345" y="155" text-anchor="middle" font-family="sans-serif" font-size="12" fill="#1565c0">App Movil (RN)</text>
  <rect x="440" y="130" width="150" height="40" rx="6" fill="#ffe0b2" stroke="#e65100" stroke-width="1.5"/>
  <text x="515" y="155" text-anchor="middle" font-family="sans-serif" font-size="12" fill="#e65100">API Gateway (Kong)</text>
  <rect x="610" y="130" width="150" height="40" rx="6" fill="#e1bee7" stroke="#6a1b9a" stroke-width="1.5"/>
  <text x="685" y="155" text-anchor="middle" font-family="sans-serif" font-size="12" fill="#6a1b9a">Core Adapter (Java)</text>
  <rect x="100" y="210" width="250" height="90" rx="8" fill="#c8e6c9" stroke="#2e7d32" stroke-width="1.5"/>
  <text x="225" y="235" text-anchor="middle" font-family="sans-serif" font-size="13" font-weight="bold" fill="#2e7d32">Motor Stablecoin (Rust/Go)</text>
  <text x="225" y="255" text-anchor="middle" font-family="sans-serif" font-size="10" fill="#2e7d32">PaymentRouter / SwapEngine</text>
  <text x="225" y="270" text-anchor="middle" font-family="sans-serif" font-size="10" fill="#2e7d32">SettlementEngine / LiquidityMgr</text>
  <rect x="380" y="210" width="150" height="40" rx="6" fill="#d1c4e9" stroke="#4527a0" stroke-width="1.5"/>
  <text x="455" y="235" text-anchor="middle" font-family="sans-serif" font-size="12" fill="#4527a0">Emision (Go)</text>
  <rect x="550" y="210" width="150" height="40" rx="6" fill="#ffccbc" stroke="#bf360c" stroke-width="1.5"/>
  <text x="625" y="235" text-anchor="middle" font-family="sans-serif" font-size="12" fill="#bf360c">Reservas (Rust)</text>
  <rect x="100" y="330" width="250" height="90" rx="8" fill="#fff9c4" stroke="#f57f17" stroke-width="1.5"/>
  <text x="225" y="355" text-anchor="middle" font-family="sans-serif" font-size="13" font-weight="bold" fill="#f57f17">Compliance (Python)</text>
  <text x="225" y="375" text-anchor="middle" font-family="sans-serif" font-size="10" fill="#f57f17">IdentityVerifier / AML</text>
  <text x="225" y="390" text-anchor="middle" font-family="sans-serif" font-size="10" fill="#f57f17">TravelRule / Sanctions</text>
  <rect x="380" y="330" width="150" height="40" rx="6" fill="#b3e5fc" stroke="#0277bd" stroke-width="1.5"/>
  <text x="455" y="355" text-anchor="middle" font-family="sans-serif" font-size="12" fill="#0277bd">Wallets (Go)</text>
  <rect x="550" y="330" width="150" height="40" rx="6" fill="#b2dfdb" stroke="#00695c" stroke-width="1.5"/>
  <text x="625" y="355" text-anchor="middle" font-family="sans-serif" font-size="12" fill="#00695c">Notificaciones (Node)</text>
  <rect x="100" y="460" width="150" height="40" rx="6" fill="#d7ccc8" stroke="#4e342e" stroke-width="1.5"/>
  <text x="175" y="485" text-anchor="middle" font-family="sans-serif" font-size="12" fill="#4e342e">Nodo Blockchain</text>
  <rect x="270" y="460" width="150" height="40" rx="6" fill="#d7ccc8" stroke="#4e342e" stroke-width="1.5"/>
  <text x="345" y="485" text-anchor="middle" font-family="sans-serif" font-size="12" fill="#4e342e">Indexador (Rust)</text>
  <rect x="440" y="460" width="200" height="40" rx="6" fill="#cfd8dc" stroke="#37474f" stroke-width="1.5"/>
  <text x="540" y="485" text-anchor="middle" font-family="sans-serif" font-size="12" fill="#37474f">Base de Datos (PostgreSQL)</text>
  <line x1="175" y1="170" x2="515" y2="130" stroke="#999" stroke-width="1"/>
  <line x1="345" y1="170" x2="515" y2="135" stroke="#999" stroke-width="1"/>
  <line x1="515" y1="170" x2="685" y2="130" stroke="#999" stroke-width="1"/>
  <line x1="225" y1="300" x2="455" y2="250" stroke="#999" stroke-width="1"/>
  <line x1="225" y1="300" x2="625" y2="250" stroke="#999" stroke-width="1"/>
  <line x1="175" y1="500" x2="345" y2="460" stroke="#999" stroke-width="1"/>
  <line x1="225" y1="420" x2="175" y2="460" stroke="#999" stroke-width="1"/>
  <line x1="455" y1="370" x2="540" y2="460" stroke="#999" stroke-width="1"/>
  <line x1="225" y1="420" x2="540" y2="460" stroke="#999" stroke-width="1"/>
</svg>
